<?xml version="1.0" encoding="UTF-8"?>
<svg xmlns="http://www.w3.org/2000/svg" xmlns:xlink="http://www.w3.org/1999/xlink" viewBox="0 0 50 50" width="50px" height="50px">
<g id="surface46155053">
<path style=" stroke:none;fill-rule:nonzero;fill:rgb(100%,100%,100%);fill-opacity:1;" d="M 25 11 C 11.160156 11 0 23.140625 0 38 L 2 38 C 2 24.140625 12.332031 13 25 13 C 37.667969 13 48 24.140625 48 38 L 50 38 C 50 23.140625 38.839844 11 25 11 Z M 5 30 L 5 38 L 9 38 L 9 35 L 11 37 L 13 35 L 13 38 L 17 38 L 17 30 L 13 30 L 11 33 L 9 30 Z M 23 30 L 18 38 L 22 38 L 22.679688 37 L 27.332031 37 L 28 38 L 32 38 L 27 30 Z M 33 30 L 33 38 L 37 38 L 37 35 L 41 38 L 45 38 L 45 30 L 41 30 L 41 33 L 37 30 Z M 25 33.265625 L 26.078125 35 L 23.921875 35 Z M 25 33.265625 "/>
</g>
</svg>
